<svg width="41" height="40" viewBox="0 0 41 40" fill="none" xmlns="http://www.w3.org/2000/svg">
<g clip-path="url(#clip0_1_179)">
<path d="M18.8333 1.66667C18.8333 1.33703 18.9311 1.0148 19.1142 0.740717C19.2974 0.466635 19.5576 0.253014 19.8622 0.126868C20.1667 0.000722135 20.5018 -0.0322834 20.8252 0.0320253C21.1485 0.096334 21.4454 0.255069 21.6785 0.488156C21.9116 0.721244 22.0703 1.01822 22.1346 1.34152C22.199 1.66482 22.1659 1.99993 22.0398 2.30447C21.9137 2.60902 21.7 2.86931 21.426 3.05245C21.1519 3.23559 20.8296 3.33333 20.5 3.33333C20.058 3.33333 19.634 3.15774 19.3215 2.84518C19.0089 2.53262 18.8333 2.1087 18.8333 1.66667ZM5.5 11.6667C5.82964 11.6667 6.15187 11.5689 6.42595 11.3858C6.70003 11.2026 6.91365 10.9424 7.0398 10.6378C7.16595 10.3333 7.19895 9.99815 7.13464 9.67485C7.07033 9.35155 6.9116 9.05458 6.67851 8.82149C6.44542 8.5884 6.14845 8.42967 5.82515 8.36536C5.50185 8.30105 5.16674 8.33406 4.86219 8.4602C4.55765 8.58635 4.29735 8.79997 4.11422 9.07405C3.93108 9.34813 3.83333 9.67037 3.83333 10C3.83333 10.442 4.00893 10.866 4.32149 11.1785C4.63405 11.4911 5.05797 11.6667 5.5 11.6667ZM12.1667 5C12.4963 5 12.8185 4.90225 13.0926 4.71912C13.3667 4.53598 13.5803 4.27568 13.7065 3.97114C13.8326 3.6666 13.8656 3.33149 13.8013 3.00818C13.737 2.68488 13.5783 2.38791 13.3452 2.15482C13.1121 1.92174 12.8151 1.763 12.4918 1.69869C12.1685 1.63438 11.8334 1.66739 11.5289 1.79354C11.2243 1.91968 10.964 2.1333 10.7809 2.40738C10.5977 2.68147 10.5 3.0037 10.5 3.33333C10.5 3.77536 10.6756 4.19929 10.9882 4.51185C11.3007 4.82441 11.7246 5 12.1667 5ZM28.8333 5C29.163 5 29.4852 4.90225 29.7593 4.71912C30.0334 4.53598 30.247 4.27568 30.3731 3.97114C30.4993 3.6666 30.5323 3.33149 30.468 3.00818C30.4037 2.68488 30.2449 2.38791 30.0118 2.15482C29.7788 1.92174 29.4818 1.763 29.1585 1.69869C28.8352 1.63438 28.5001 1.66739 28.1955 1.79354C27.891 1.91968 27.6307 2.1333 27.4475 2.40738C27.2644 2.68147 27.1667 3.0037 27.1667 3.33333C27.1667 3.77536 27.3423 4.19929 27.6548 4.51185C27.9674 4.82441 28.3913 5 28.8333 5ZM35.5 11.6667C35.8296 11.6667 36.1519 11.5689 36.426 11.3858C36.7 11.2026 36.9137 10.9424 37.0398 10.6378C37.1659 10.3333 37.199 9.99815 37.1346 9.67485C37.0703 9.35155 36.9116 9.05458 36.6785 8.82149C36.4454 8.5884 36.1485 8.42967 35.8252 8.36536C35.5018 8.30105 35.1667 8.33406 34.8622 8.4602C34.5577 8.58635 34.2974 8.79997 34.1142 9.07405C33.9311 9.34813 33.8333 9.67037 33.8333 10C33.8333 10.442 34.0089 10.866 34.3215 11.1785C34.634 11.4911 35.058 11.6667 35.5 11.6667ZM18.3167 33.1383C17.844 31.9591 17.5138 30.7276 17.3333 29.47C15.0413 28.7168 13.1016 27.1552 11.8764 25.0768C10.6512 22.9984 10.2241 20.5452 10.675 18.175L16.5 24V25.3333C16.5031 25.9756 16.7401 26.5948 17.1667 27.075V20H15.1667V17.3333H17.8333C18.1867 17.3325 18.5253 17.1917 18.7752 16.9418C19.025 16.692 19.1658 16.3534 19.1667 16V13.3333H21.8333C22.5097 13.3304 23.1598 13.0706 23.6518 12.6064C24.1438 12.1422 24.4411 11.5084 24.4833 10.8333C26.0303 11.5183 27.3793 12.5829 28.405 13.9283L30.5 13.055L32.3 13.805C31.2467 11.7939 29.6972 10.0852 27.7983 8.84091C25.8995 7.59661 23.7143 6.85794 21.4499 6.69495C19.1856 6.53197 16.9171 6.95006 14.8597 7.9096C12.8022 8.86914 11.0239 10.3383 9.69346 12.1778C8.36299 14.0173 7.52444 16.1661 7.25731 18.4206C6.99018 20.675 7.30333 22.9603 8.16707 25.0598C9.0308 27.1593 10.4165 29.0034 12.1927 30.4172C13.969 31.831 16.0769 32.7676 18.3167 33.1383ZM12.1667 35C11.837 35 11.5148 35.0977 11.2407 35.2809C10.9666 35.464 10.753 35.7243 10.6269 36.0289C10.5007 36.3334 10.4677 36.6685 10.532 36.9918C10.5963 37.3151 10.7551 37.6121 10.9882 37.8452C11.2212 38.0783 11.5182 38.237 11.8415 38.3013C12.1648 38.3656 12.4999 38.3326 12.8045 38.2065C13.109 38.0803 13.3693 37.8667 13.5524 37.5926C13.7356 37.3185 13.8333 36.9963 13.8333 36.6667C13.8333 36.2246 13.6577 35.8007 13.3452 35.4882C13.0326 35.1756 12.6087 35 12.1667 35ZM20.5 36.6667C20.1704 36.6667 19.8481 36.7644 19.574 36.9476C19.3 37.1307 19.0863 37.391 18.9602 37.6955C18.8341 38.0001 18.801 38.3352 18.8654 38.6585C18.9297 38.9818 19.0884 39.2788 19.3215 39.5118C19.5546 39.7449 19.8515 39.9037 20.1748 39.968C20.4982 40.0323 20.8333 39.9993 21.1378 39.8731C21.4423 39.747 21.7026 39.5334 21.8858 39.2593C22.0689 38.9852 22.1667 38.663 22.1667 38.3333C22.1667 37.8913 21.9911 37.4674 21.6785 37.1548C21.3659 36.8423 20.942 36.6667 20.5 36.6667ZM5.5 28.3333C5.17037 28.3333 4.84813 28.4311 4.57405 28.6142C4.29997 28.7974 4.08635 29.0577 3.9602 29.3622C3.83406 29.6667 3.80105 30.0019 3.86536 30.3252C3.92967 30.6485 4.0884 30.9454 4.32149 31.1785C4.55458 31.4116 4.85155 31.5703 5.17485 31.6346C5.49815 31.699 5.83326 31.6659 6.13781 31.5398C6.44235 31.4137 6.70265 31.2 6.88578 30.926C7.06892 30.6519 7.16667 30.3296 7.16667 30C7.16667 29.558 6.99107 29.134 6.67851 28.8215C6.36595 28.5089 5.94203 28.3333 5.5 28.3333ZM2.16667 18.3333C1.83703 18.3333 1.5148 18.4311 1.24072 18.6142C0.966635 18.7974 0.753014 19.0577 0.626868 19.3622C0.500722 19.6667 0.467717 20.0018 0.532025 20.3252C0.596334 20.6485 0.755069 20.9454 0.988156 21.1785C1.22124 21.4116 1.51822 21.5703 1.84152 21.6346C2.16482 21.699 2.49993 21.6659 2.80447 21.5398C3.10902 21.4137 3.36931 21.2 3.55245 20.926C3.73559 20.6519 3.83333 20.3296 3.83333 20C3.83333 19.558 3.65774 19.1341 3.34518 18.8215C3.03262 18.5089 2.60869 18.3333 2.16667 18.3333ZM40.5 20.8333V27.2717C40.4145 30.184 39.3969 32.9922 37.5969 35.2833C35.7969 37.5744 33.3094 39.2276 30.5 40C27.695 39.2428 25.2082 37.6029 23.4073 35.323C21.6064 33.0431 20.5871 30.2441 20.5 27.34V20.8333L30.5 16.6667L40.5 20.8333Z" fill="#D4C19C"/>
</g>
<defs>
<clipPath id="clip0_1_179">
<rect width="40" height="40" fill="white" transform="translate(0.5)"/>
</clipPath>
</defs>
</svg>
